<?xml version="1.0" encoding="UTF-8" standalone="no"?>
<!DOCTYPE svg PUBLIC "-//W3C//DTD SVG 1.1//EN" "http://www.w3.org/Graphics/SVG/1.1/DTD/svg11.dtd">
<svg width="100%" height="100%" viewBox="0 0 600 598" version="1.1" xmlns="http://www.w3.org/2000/svg" xmlns:xlink="http://www.w3.org/1999/xlink" xml:space="preserve" xmlns:serif="http://www.serif.com/" style="fill-rule:evenodd;clip-rule:evenodd;stroke-linejoin:round;stroke-miterlimit:1.41421;">
    <g transform="matrix(1,0,0,1,-1.18921,-7.00516)">
        <g transform="matrix(1.32785,0,0,1.32785,-303.865,-440.281)">
            <path d="M455.427,336.85L482.763,364.186L516.46,345.238L535.407,378.936L572.966,369.783L582.119,407.342L620.756,408.662L619.436,447.298L656.283,458.993L644.588,495.841L676.914,517.043L655.712,549.369L681.118,578.506L651.981,603.913L668.584,638.825L633.672,655.428L640.241,693.525L602.144,700.093L598.191,738.549L559.735,734.596L545.553,770.559L509.589,756.377L486.23,787.18L455.427,763.821L424.623,787.18L401.264,756.377L365.301,770.559L351.119,734.596L312.663,738.549L308.709,700.093L270.613,693.525L277.181,655.428L242.269,638.825L258.873,603.913L229.735,578.506L255.142,549.369L233.939,517.043L266.265,495.841L254.57,458.993L291.418,447.298L290.098,408.662L328.734,407.342L337.887,369.783L375.447,378.936L394.394,345.238L428.091,364.186L455.427,336.85Z" style="fill:rgb(255,165,0);"/>
        </g>
        <g transform="matrix(0.452093,0,0,0.452093,38.7369,37.9828)">
            <path d="M359.224,261.55C359.224,266.518 357.665,270.784 354.548,274.347C351.431,277.909 346.896,280.745 340.943,282.854C336.583,284.448 332.177,285.737 327.724,286.722C323.271,287.706 318.349,288.526 312.958,289.183C312.958,296.589 314.329,302.249 317.072,306.163C319.814,310.077 323.833,312.034 329.13,312.034C333.818,312.034 337.954,310.862 341.54,308.518C345.126,306.175 348.654,302.683 352.122,298.042L356.13,300.995C352.38,306.714 347.693,311.284 342.068,314.706C336.443,318.128 330.607,319.839 324.56,319.839C316.263,319.839 309.923,317.518 305.54,312.878C301.158,308.237 298.966,301.651 298.966,293.12C298.966,287.214 299.892,281.577 301.743,276.21C303.595,270.843 306.302,265.933 309.865,261.479C313.333,257.12 317.587,253.604 322.626,250.933C327.665,248.261 333.232,246.925 339.326,246.925C346.076,246.925 351.079,248.296 354.337,251.038C357.595,253.78 359.224,257.284 359.224,261.55ZM346.286,259.792C346.286,257.964 346.029,256.522 345.513,255.468C344.997,254.413 344.341,253.628 343.544,253.112C342.701,252.55 341.81,252.198 340.872,252.058C339.935,251.917 338.974,251.847 337.99,251.847C332.365,251.847 327.173,254.94 322.415,261.128C317.658,267.315 314.646,275.026 313.38,284.261C316.661,283.792 320.365,283.124 324.49,282.257C328.615,281.39 332.036,280.253 334.755,278.847C338.646,276.831 341.54,274.241 343.439,271.077C345.337,267.913 346.286,264.151 346.286,259.792Z" style="fill:white;fill-rule:nonzero;"/>
            <path d="M442.826,309.714L441.771,314.214C437.552,315.901 434.271,317.132 431.927,317.905C429.583,318.679 427.216,319.065 424.826,319.065C421.076,319.065 418.263,318.093 416.388,316.147C414.513,314.202 413.576,311.8 413.576,308.94C413.576,307.909 413.669,306.772 413.857,305.53C414.044,304.288 414.349,302.823 414.771,301.136L421.661,274.909C422.177,272.893 422.587,271.065 422.892,269.425C423.197,267.784 423.349,266.472 423.349,265.487C423.349,262.347 422.599,259.862 421.099,258.034C419.599,256.206 417.372,255.292 414.419,255.292C411.56,255.292 408.349,256.229 404.786,258.104C401.224,259.979 397.872,262.698 394.732,266.261L382.849,317.87L369.771,317.87L380.247,272.308C380.482,271.183 380.822,269.554 381.267,267.421C381.712,265.288 381.935,263.565 381.935,262.253C381.935,259.628 381.49,257.87 380.599,256.979C379.708,256.089 377.927,255.643 375.255,255.643C374.224,255.643 372.911,255.819 371.318,256.171C369.724,256.522 368.482,256.815 367.591,257.05L368.646,252.55C372.302,250.909 375.536,249.69 378.349,248.893C381.161,248.097 383.576,247.698 385.591,247.698C389.294,247.698 391.943,248.706 393.536,250.722C395.13,252.737 395.974,255.526 396.068,259.089L396.49,259.089C401.646,254.964 406.099,251.905 409.849,249.913C413.599,247.921 417.865,246.925 422.646,246.925C427.146,246.925 430.661,248.225 433.193,250.827C435.724,253.429 436.99,256.839 436.99,261.058C436.99,261.901 436.861,263.401 436.603,265.558C436.345,267.714 435.935,269.847 435.372,271.956L429.466,294.526C429.044,296.026 428.634,297.749 428.236,299.694C427.837,301.64 427.638,303.151 427.638,304.229C427.638,306.901 428.224,308.718 429.396,309.679C430.568,310.64 432.49,311.12 435.161,311.12C436.052,311.12 437.329,310.968 438.993,310.663C440.658,310.358 441.935,310.042 442.826,309.714Z" style="fill:white;fill-rule:nonzero;"/>
            <path d="M468.279,319.347C463.826,319.347 460.568,318.444 458.505,316.64C456.443,314.835 455.411,312.245 455.411,308.87C455.411,307.792 455.482,306.772 455.622,305.811C455.763,304.85 455.951,303.761 456.185,302.542L467.083,255.573L454.568,255.573L456.044,249.175L468.841,249.175L473.763,228.573L486.419,228.573L481.638,249.175L501.255,249.175L499.779,255.573L480.302,255.573L471.302,294.315C470.88,296.097 470.529,297.819 470.247,299.483C469.966,301.147 469.826,302.565 469.826,303.737C469.826,306.315 470.47,308.202 471.759,309.397C473.048,310.593 475.38,311.19 478.755,311.19C479.974,311.19 481.685,311.038 483.888,310.733C486.091,310.429 487.802,310.042 489.021,309.573L487.826,314.706C484.544,315.972 481.451,317.061 478.544,317.975C475.638,318.89 472.216,319.347 468.279,319.347Z" style="fill:white;fill-rule:nonzero;"/>
            <path d="M562.076,261.55C562.076,266.518 560.517,270.784 557.4,274.347C554.283,277.909 549.747,280.745 543.794,282.854C539.435,284.448 535.029,285.737 530.576,286.722C526.122,287.706 521.201,288.526 515.81,289.183C515.81,296.589 517.181,302.249 519.923,306.163C522.665,310.077 526.685,312.034 531.982,312.034C536.669,312.034 540.806,310.862 544.392,308.518C547.978,306.175 551.505,302.683 554.974,298.042L558.982,300.995C555.232,306.714 550.544,311.284 544.919,314.706C539.294,318.128 533.458,319.839 527.411,319.839C519.115,319.839 512.775,317.518 508.392,312.878C504.009,308.237 501.818,301.651 501.818,293.12C501.818,287.214 502.743,281.577 504.595,276.21C506.447,270.843 509.154,265.933 512.716,261.479C516.185,257.12 520.439,253.604 525.478,250.933C530.517,248.261 536.083,246.925 542.177,246.925C548.927,246.925 553.931,248.296 557.189,251.038C560.447,253.78 562.076,257.284 562.076,261.55ZM549.138,259.792C549.138,257.964 548.88,256.522 548.365,255.468C547.849,254.413 547.193,253.628 546.396,253.112C545.552,252.55 544.661,252.198 543.724,252.058C542.786,251.917 541.826,251.847 540.841,251.847C535.216,251.847 530.025,254.94 525.267,261.128C520.509,267.315 517.497,275.026 516.232,284.261C519.513,283.792 523.216,283.124 527.341,282.257C531.466,281.39 534.888,280.253 537.607,278.847C541.497,276.831 544.392,274.241 546.29,271.077C548.189,267.913 549.138,264.151 549.138,259.792Z" style="fill:white;fill-rule:nonzero;"/>
            <path d="M631.966,258.386C631.966,259.698 631.779,261.14 631.404,262.71C631.029,264.28 630.49,265.581 629.786,266.612C628.943,267.878 628.017,268.85 627.009,269.53C626.001,270.21 624.56,270.55 622.685,270.55C620.154,270.55 618.255,269.917 616.99,268.651C615.724,267.386 615.091,265.979 615.091,264.433C615.091,262.979 615.443,261.35 616.146,259.546C616.849,257.741 617.576,255.948 618.326,254.167C617.763,254.167 616.837,254.319 615.548,254.624C614.259,254.929 612.701,255.526 610.872,256.417C609.044,257.308 606.97,258.643 604.65,260.425C602.329,262.206 599.857,264.573 597.232,267.526L585.911,317.87L572.833,317.87L583.099,272.308C583.333,271.183 583.673,269.495 584.118,267.245C584.564,264.995 584.786,263.331 584.786,262.253C584.786,259.628 584.341,257.87 583.451,256.979C582.56,256.089 580.779,255.643 578.107,255.643C577.076,255.643 575.763,255.819 574.169,256.171C572.576,256.522 571.333,256.815 570.443,257.05L571.497,252.55C575.154,250.909 578.388,249.69 581.201,248.893C584.013,248.097 586.427,247.698 588.443,247.698C592.193,247.698 594.865,248.718 596.458,250.757C598.052,252.796 598.849,255.854 598.849,259.933L599.271,259.933C604.849,255.104 609.079,251.729 611.962,249.808C614.845,247.886 617.857,246.925 620.997,246.925C622.497,246.925 623.951,247.112 625.357,247.487C626.763,247.862 627.958,248.495 628.943,249.386C629.974,250.37 630.736,251.507 631.228,252.796C631.72,254.085 631.966,255.948 631.966,258.386Z" style="fill:white;fill-rule:nonzero;"/>
            <path d="M687.372,319.347C682.919,319.347 679.661,318.444 677.599,316.64C675.536,314.835 674.505,312.245 674.505,308.87C674.505,307.792 674.576,306.772 674.716,305.811C674.857,304.85 675.044,303.761 675.279,302.542L686.177,255.573L673.661,255.573L675.138,249.175L687.935,249.175L692.857,228.573L705.513,228.573L700.732,249.175L720.349,249.175L718.872,255.573L699.396,255.573L690.396,294.315C689.974,296.097 689.622,297.819 689.341,299.483C689.06,301.147 688.919,302.565 688.919,303.737C688.919,306.315 689.564,308.202 690.853,309.397C692.142,310.593 694.474,311.19 697.849,311.19C699.068,311.19 700.779,311.038 702.982,310.733C705.185,310.429 706.896,310.042 708.115,309.573L706.919,314.706C703.638,315.972 700.544,317.061 697.638,317.975C694.732,318.89 691.31,319.347 687.372,319.347Z" style="fill:white;fill-rule:nonzero;"/>
            <path d="M792.982,309.714L791.927,314.214C787.708,315.901 784.427,317.132 782.083,317.905C779.74,318.679 777.372,319.065 774.982,319.065C771.232,319.065 768.419,318.093 766.544,316.147C764.669,314.202 763.732,311.8 763.732,308.94C763.732,307.909 763.826,306.772 764.013,305.53C764.201,304.288 764.505,302.823 764.927,301.136L771.818,274.909C772.333,272.893 772.743,271.065 773.048,269.425C773.353,267.784 773.505,266.472 773.505,265.487C773.505,262.347 772.755,259.862 771.255,258.034C769.755,256.206 767.529,255.292 764.576,255.292C761.576,255.292 758.329,256.253 754.837,258.175C751.345,260.097 748.029,262.792 744.888,266.261L733.005,317.87L719.927,317.87L740.81,227.378C741.044,226.3 741.243,225.386 741.408,224.636C741.572,223.886 741.654,223.089 741.654,222.245C741.654,220.558 741.372,219.257 740.81,218.343C740.247,217.429 739.451,216.737 738.419,216.268C737.529,215.847 736.31,215.565 734.763,215.425C733.216,215.284 731.669,215.12 730.122,214.933L731.107,210.643L757.193,209.026L757.896,210.081L746.646,258.737L746.927,258.737C751.755,254.847 756.068,251.905 759.865,249.913C763.661,247.921 767.974,246.925 772.802,246.925C777.302,246.925 780.818,248.225 783.349,250.827C785.88,253.429 787.146,256.839 787.146,261.058C787.146,261.901 787.017,263.401 786.759,265.558C786.501,267.714 786.091,269.847 785.529,271.956L779.622,294.526C779.247,296.026 778.849,297.749 778.427,299.694C778.005,301.64 777.794,303.151 777.794,304.229C777.794,306.901 778.38,308.718 779.552,309.679C780.724,310.64 782.646,311.12 785.318,311.12C786.208,311.12 787.486,310.968 789.15,310.663C790.814,310.358 792.091,310.042 792.982,309.714Z" style="fill:white;fill-rule:nonzero;"/>
            <path d="M862.169,261.55C862.169,266.518 860.611,270.784 857.493,274.347C854.376,277.909 849.841,280.745 843.888,282.854C839.529,284.448 835.122,285.737 830.669,286.722C826.216,287.706 821.294,288.526 815.904,289.183C815.904,296.589 817.275,302.249 820.017,306.163C822.759,310.077 826.779,312.034 832.076,312.034C836.763,312.034 840.9,310.862 844.486,308.518C848.072,306.175 851.599,302.683 855.068,298.042L859.076,300.995C855.326,306.714 850.638,311.284 845.013,314.706C839.388,318.128 833.552,319.839 827.505,319.839C819.208,319.839 812.868,317.518 808.486,312.878C804.103,308.237 801.911,301.651 801.911,293.12C801.911,287.214 802.837,281.577 804.689,276.21C806.54,270.843 809.247,265.933 812.81,261.479C816.279,257.12 820.533,253.604 825.572,250.933C830.611,248.261 836.177,246.925 842.271,246.925C849.021,246.925 854.025,248.296 857.283,251.038C860.54,253.78 862.169,257.284 862.169,261.55ZM849.232,259.792C849.232,257.964 848.974,256.522 848.458,255.468C847.943,254.413 847.286,253.628 846.49,253.112C845.646,252.55 844.755,252.198 843.818,252.058C842.88,251.917 841.919,251.847 840.935,251.847C835.31,251.847 830.118,254.94 825.361,261.128C820.603,267.315 817.591,275.026 816.326,284.261C819.607,283.792 823.31,283.124 827.435,282.257C831.56,281.39 834.982,280.253 837.701,278.847C841.591,276.831 844.486,274.241 846.384,271.077C848.283,267.913 849.232,264.151 849.232,259.792Z" style="fill:white;fill-rule:nonzero;"/>
            <path d="M215.892,751.839C207.689,751.839 201.208,749.448 196.451,744.667C191.693,739.886 189.314,733.089 189.314,724.276C189.314,718.417 190.216,712.804 192.021,707.436C193.826,702.069 196.345,697.3 199.579,693.128C202.814,688.956 206.904,685.546 211.849,682.897C216.794,680.249 222.29,678.925 228.337,678.925C235.04,678.925 240.138,680.343 243.63,683.179C247.122,686.015 248.868,689.589 248.868,693.901C248.868,697.136 248.107,699.972 246.583,702.409C245.06,704.847 242.775,706.065 239.728,706.065C237.197,706.065 235.298,705.433 234.033,704.167C232.767,702.901 232.134,701.495 232.134,699.948C232.134,698.448 232.65,696.397 233.681,693.796C234.712,691.194 235.533,689.097 236.142,687.503C235.626,686.237 234.478,685.311 232.697,684.725C230.915,684.14 229.064,683.847 227.142,683.847C220.767,683.847 215.271,687.561 210.654,694.991C206.036,702.421 203.728,711.526 203.728,722.308C203.728,728.964 205.216,734.249 208.193,738.163C211.169,742.077 215.189,744.034 220.251,744.034C224.798,744.034 228.841,742.815 232.38,740.378C235.919,737.94 239.306,734.495 242.54,730.042L246.548,732.995C243.314,738.104 238.919,742.522 233.365,746.249C227.81,749.975 221.986,751.839 215.892,751.839Z" style="fill:white;fill-rule:nonzero;"/>
            <path d="M322.556,706.558C322.556,712.089 321.618,717.62 319.743,723.151C317.868,728.683 315.15,733.534 311.587,737.706C307.978,742.018 303.63,745.475 298.544,748.077C293.458,750.679 287.564,751.979 280.861,751.979C273.079,751.979 266.763,749.472 261.911,744.456C257.06,739.44 254.634,732.69 254.634,724.206C254.634,717.972 255.665,712.159 257.728,706.768C259.79,701.378 262.556,696.643 266.025,692.565C269.54,688.487 273.888,685.194 279.068,682.686C284.247,680.179 289.861,678.925 295.908,678.925C304.251,678.925 310.779,681.468 315.49,686.554C320.201,691.64 322.556,698.308 322.556,706.558ZM308.212,703.886C308.212,697.229 307.029,692.237 304.661,688.909C302.294,685.581 298.884,683.917 294.431,683.917C290.54,683.917 286.872,685.112 283.427,687.503C279.982,689.893 277.017,693.784 274.533,699.175C272.611,703.253 271.204,707.788 270.314,712.78C269.423,717.772 268.978,722.378 268.978,726.597C268.978,733.3 270.138,738.374 272.458,741.819C274.779,745.265 278.283,746.987 282.97,746.987C287.142,746.987 290.845,745.675 294.079,743.05C297.314,740.425 299.939,737.097 301.954,733.065C303.97,729.128 305.517,724.616 306.595,719.53C307.673,714.444 308.212,709.229 308.212,703.886Z" style="fill:white;fill-rule:nonzero;"/>
            <path d="M449.822,741.925L448.767,746.425C444.454,748.159 441.009,749.366 438.431,750.046C435.853,750.725 433.65,751.065 431.822,751.065C428.072,751.065 425.259,750.093 423.384,748.147C421.509,746.202 420.572,743.8 420.572,740.94C420.572,739.909 420.665,738.772 420.853,737.53C421.04,736.288 421.345,734.823 421.767,733.136L428.658,706.909C429.173,704.893 429.583,703.065 429.888,701.425C430.193,699.784 430.345,698.472 430.345,697.487C430.345,694.347 429.665,691.862 428.306,690.034C426.947,688.206 424.79,687.292 421.837,687.292C418.697,687.292 415.615,688.03 412.591,689.507C409.568,690.983 406.158,693.737 402.361,697.768L390.126,749.87L377.048,749.87L388.087,702.901C388.322,701.87 388.544,700.78 388.755,699.632C388.966,698.483 389.072,697.628 389.072,697.065C389.072,694.018 388.31,691.628 386.786,689.893C385.263,688.159 383.025,687.292 380.072,687.292C377.4,687.292 374.447,687.96 371.212,689.296C367.978,690.632 364.228,693.62 359.962,698.261L348.079,749.87L335.001,749.87L345.478,704.308C345.853,702.667 346.216,700.909 346.568,699.034C346.919,697.159 347.095,695.565 347.095,694.253C347.095,691.534 346.65,689.741 345.759,688.874C344.868,688.007 343.134,687.573 340.556,687.573C339.525,687.573 338.201,687.761 336.583,688.136C334.966,688.511 333.712,688.815 332.822,689.05L333.876,684.55C337.533,682.909 340.767,681.69 343.579,680.893C346.392,680.097 348.806,679.698 350.822,679.698C354.572,679.698 357.232,680.718 358.802,682.757C360.372,684.796 361.204,687.573 361.298,691.089L361.72,691.089C367.251,686.729 371.798,683.612 375.361,681.737C378.923,679.862 383.165,678.925 388.087,678.925C392.259,678.925 395.646,680.132 398.247,682.546C400.849,684.96 402.314,687.995 402.642,691.651L402.923,691.651C407.939,687.479 412.404,684.315 416.318,682.159C420.232,680.003 424.79,678.925 429.993,678.925C434.493,678.925 437.951,680.225 440.365,682.827C442.779,685.429 443.986,688.839 443.986,693.058C443.986,693.901 443.857,695.401 443.599,697.558C443.341,699.714 442.931,701.847 442.368,703.956L436.462,726.526C436.04,728.026 435.642,729.749 435.267,731.694C434.892,733.64 434.704,735.151 434.704,736.229C434.704,738.901 435.267,740.718 436.392,741.679C437.517,742.64 439.415,743.12 442.087,743.12C442.978,743.12 444.267,743.003 445.954,742.768C447.642,742.534 448.931,742.253 449.822,741.925Z" style="fill:white;fill-rule:nonzero;"/>
            <path d="M532.228,705.784C532.228,712.065 531.126,718.018 528.923,723.643C526.72,729.268 523.79,734.143 520.134,738.268C516.056,742.815 511.638,746.19 506.88,748.393C502.122,750.597 497.236,751.698 492.22,751.698C488.189,751.698 484.884,751.206 482.306,750.222C479.728,749.237 477.431,748.018 475.415,746.565L471.337,764.987C471.056,766.159 470.833,767.261 470.669,768.292C470.505,769.323 470.423,770.143 470.423,770.753C470.423,772.018 470.88,773.026 471.794,773.776C472.708,774.526 473.751,775.065 474.923,775.393C476.095,775.768 477.408,776.05 478.861,776.237C480.314,776.425 481.626,776.565 482.798,776.659L481.814,781.089L443.072,781.089L444.056,776.659C445.556,776.565 446.962,776.448 448.275,776.308C449.587,776.167 450.829,775.933 452.001,775.604C453.454,775.183 454.615,774.397 455.482,773.249C456.349,772.1 456.97,770.683 457.345,768.995L472.04,704.308C472.415,702.526 472.767,700.733 473.095,698.929C473.423,697.124 473.587,695.565 473.587,694.253C473.587,691.628 473.177,689.87 472.357,688.979C471.536,688.089 469.767,687.643 467.048,687.643C466.017,687.643 464.704,687.843 463.111,688.241C461.517,688.64 460.275,688.956 459.384,689.19L460.439,684.69C464.001,683.097 467.212,681.866 470.072,680.999C472.931,680.132 475.368,679.698 477.384,679.698C480.665,679.698 483.15,680.53 484.837,682.194C486.525,683.858 487.579,686.167 488.001,689.12L488.564,689.12C491.751,686.167 495.161,683.729 498.794,681.808C502.427,679.886 506.048,678.925 509.658,678.925C516.783,678.925 522.326,681.35 526.286,686.202C530.247,691.054 532.228,697.581 532.228,705.784ZM510.29,734.823C512.681,730.979 514.521,726.608 515.81,721.71C517.099,716.811 517.743,711.62 517.743,706.136C517.743,703.651 517.521,701.155 517.076,698.647C516.63,696.14 515.915,694.065 514.931,692.425C513.9,690.597 512.493,689.179 510.712,688.171C508.931,687.163 506.587,686.659 503.681,686.659C501.525,686.659 499.146,687.315 496.544,688.628C493.943,689.94 490.767,692.401 487.017,696.011L478.017,735.878C478.345,738.55 479.786,741.046 482.341,743.366C484.896,745.686 487.978,746.847 491.587,746.847C495.29,746.847 498.759,745.768 501.993,743.612C505.228,741.456 507.993,738.526 510.29,734.823Z" style="fill:white;fill-rule:nonzero;"/>
            <path d="M609.783,706.558C609.783,712.089 608.845,717.62 606.97,723.151C605.095,728.683 602.376,733.534 598.814,737.706C595.204,742.018 590.857,745.475 585.771,748.077C580.685,750.679 574.79,751.979 568.087,751.979C560.306,751.979 553.99,749.472 549.138,744.456C544.286,739.44 541.861,732.69 541.861,724.206C541.861,717.972 542.892,712.159 544.954,706.768C547.017,701.378 549.783,696.643 553.251,692.565C556.767,688.487 561.115,685.194 566.294,682.686C571.474,680.179 577.087,678.925 583.134,678.925C591.478,678.925 598.005,681.468 602.716,686.554C607.427,691.64 609.783,698.308 609.783,706.558ZM595.439,703.886C595.439,697.229 594.255,692.237 591.888,688.909C589.521,685.581 586.111,683.917 581.658,683.917C577.767,683.917 574.099,685.112 570.654,687.503C567.208,689.893 564.243,693.784 561.759,699.175C559.837,703.253 558.431,707.788 557.54,712.78C556.65,717.772 556.204,722.378 556.204,726.597C556.204,733.3 557.365,738.374 559.685,741.819C562.005,745.265 565.509,746.987 570.197,746.987C574.368,746.987 578.072,745.675 581.306,743.05C584.54,740.425 587.165,737.097 589.181,733.065C591.197,729.128 592.743,724.616 593.822,719.53C594.9,714.444 595.439,709.229 595.439,703.886Z" style="fill:white;fill-rule:nonzero;"/>
            <path d="M639.947,751.909C633.009,751.909 627.232,750.679 622.615,748.218C617.997,745.757 615.689,742.534 615.689,738.55C615.689,736.675 616.368,734.917 617.728,733.276C619.087,731.636 620.751,730.815 622.72,730.815C624.595,730.815 626.107,731.249 627.255,732.116C628.404,732.983 629.306,734.003 629.962,735.175C630.665,736.393 631.286,737.847 631.826,739.534C632.365,741.222 632.822,742.604 633.197,743.683C633.9,744.479 634.872,745.218 636.115,745.897C637.357,746.577 639.15,746.917 641.493,746.917C646.556,746.917 650.388,745.651 652.99,743.12C655.591,740.589 656.892,737.167 656.892,732.854C656.892,729.667 655.673,727.124 653.236,725.225C650.798,723.327 647.165,721.581 642.337,719.987C640.603,719.425 638.564,718.569 636.22,717.421C633.876,716.272 632.001,715.042 630.595,713.729C628.908,712.229 627.548,710.448 626.517,708.386C625.486,706.323 624.97,703.886 624.97,701.073C624.97,695.073 627.654,689.882 633.021,685.499C638.388,681.116 644.986,678.925 652.814,678.925C654.642,678.925 656.611,679.018 658.72,679.206C660.829,679.393 663.15,679.909 665.681,680.753C667.884,681.503 669.759,682.616 671.306,684.093C672.853,685.569 673.626,687.479 673.626,689.823C673.626,691.745 672.982,693.491 671.693,695.061C670.404,696.632 668.704,697.417 666.595,697.417C664.861,697.417 663.431,697.042 662.306,696.292C661.181,695.542 660.243,694.534 659.493,693.268C658.743,692.003 658.134,690.643 657.665,689.19C657.197,687.737 656.681,686.308 656.118,684.901C655.228,684.526 654.431,684.268 653.728,684.128C653.025,683.987 652.087,683.917 650.915,683.917C646.322,683.917 642.841,685.147 640.474,687.608C638.107,690.069 636.923,692.987 636.923,696.362C636.923,699.643 637.99,702.116 640.122,703.78C642.255,705.444 645.783,707.167 650.704,708.948C657.079,711.245 661.708,713.87 664.591,716.823C667.474,719.776 668.915,723.433 668.915,727.792C668.915,734.917 666.173,740.718 660.689,745.194C655.204,749.671 648.29,751.909 639.947,751.909Z" style="fill:white;fill-rule:nonzero;"/>
            <path d="M715.322,742.206L714.267,746.706C709.954,748.44 706.509,749.647 703.931,750.327C701.353,751.007 699.15,751.347 697.322,751.347C693.572,751.347 690.759,750.374 688.884,748.429C687.009,746.483 686.072,744.081 686.072,741.222C686.072,740.143 686.165,739.018 686.353,737.847C686.54,736.675 686.845,735.198 687.267,733.417L694.72,703.534C695.095,701.893 695.458,700.136 695.81,698.261C696.161,696.386 696.337,694.792 696.337,693.479C696.337,690.854 695.904,689.108 695.036,688.241C694.169,687.374 692.4,686.94 689.728,686.94C688.697,686.94 687.326,687.104 685.615,687.433C683.904,687.761 682.603,688.042 681.712,688.276L682.767,683.776C686.423,682.136 689.704,680.917 692.611,680.12C695.517,679.323 697.814,678.925 699.501,678.925C703.345,678.925 706.134,679.839 707.868,681.667C709.603,683.495 710.47,685.956 710.47,689.05C710.47,689.893 710.376,691.042 710.189,692.495C710.001,693.948 709.72,695.401 709.345,696.854L701.822,726.737C701.353,728.565 700.943,730.358 700.591,732.116C700.24,733.874 700.064,735.315 700.064,736.44C700.064,739.112 700.661,740.94 701.857,741.925C703.052,742.909 704.986,743.401 707.658,743.401C708.548,743.401 709.826,743.284 711.49,743.05C713.154,742.815 714.431,742.534 715.322,742.206ZM720.314,652.347C720.314,655.018 719.447,657.35 717.712,659.343C715.978,661.335 713.822,662.331 711.243,662.331C708.853,662.331 706.79,661.382 705.056,659.483C703.322,657.585 702.454,655.417 702.454,652.979C702.454,650.401 703.322,648.151 705.056,646.229C706.79,644.308 708.853,643.347 711.243,643.347C713.915,643.347 716.095,644.249 717.783,646.054C719.47,647.858 720.314,649.956 720.314,652.347Z" style="fill:white;fill-rule:nonzero;"/>
            <path d="M740.704,751.347C736.251,751.347 732.993,750.444 730.931,748.64C728.868,746.835 727.837,744.245 727.837,740.87C727.837,739.792 727.908,738.772 728.048,737.811C728.189,736.85 728.376,735.761 728.611,734.542L739.509,687.573L726.993,687.573L728.47,681.175L741.267,681.175L746.189,660.573L758.845,660.573L754.064,681.175L773.681,681.175L772.204,687.573L752.728,687.573L743.728,726.315C743.306,728.097 742.954,729.819 742.673,731.483C742.392,733.147 742.251,734.565 742.251,735.737C742.251,738.315 742.896,740.202 744.185,741.397C745.474,742.593 747.806,743.19 751.181,743.19C752.4,743.19 754.111,743.038 756.314,742.733C758.517,742.429 760.228,742.042 761.447,741.573L760.251,746.706C756.97,747.972 753.876,749.061 750.97,749.975C748.064,750.89 744.642,751.347 740.704,751.347Z" style="fill:white;fill-rule:nonzero;"/>
            <path d="M808.134,742.206L807.079,746.706C802.767,748.44 799.322,749.647 796.743,750.327C794.165,751.007 791.962,751.347 790.134,751.347C786.384,751.347 783.572,750.374 781.697,748.429C779.822,746.483 778.884,744.081 778.884,741.222C778.884,740.143 778.978,739.018 779.165,737.847C779.353,736.675 779.658,735.198 780.079,733.417L787.533,703.534C787.908,701.893 788.271,700.136 788.622,698.261C788.974,696.386 789.15,694.792 789.15,693.479C789.15,690.854 788.716,689.108 787.849,688.241C786.982,687.374 785.212,686.94 782.54,686.94C781.509,686.94 780.138,687.104 778.427,687.433C776.716,687.761 775.415,688.042 774.525,688.276L775.579,683.776C779.236,682.136 782.517,680.917 785.423,680.12C788.329,679.323 790.626,678.925 792.314,678.925C796.158,678.925 798.947,679.839 800.681,681.667C802.415,683.495 803.283,685.956 803.283,689.05C803.283,689.893 803.189,691.042 803.001,692.495C802.814,693.948 802.533,695.401 802.158,696.854L794.634,726.737C794.165,728.565 793.755,730.358 793.404,732.116C793.052,733.874 792.876,735.315 792.876,736.44C792.876,739.112 793.474,740.94 794.669,741.925C795.865,742.909 797.798,743.401 800.47,743.401C801.361,743.401 802.638,743.284 804.302,743.05C805.966,742.815 807.243,742.534 808.134,742.206ZM813.126,652.347C813.126,655.018 812.259,657.35 810.525,659.343C808.79,661.335 806.634,662.331 804.056,662.331C801.665,662.331 799.603,661.382 797.868,659.483C796.134,657.585 795.267,655.417 795.267,652.979C795.267,650.401 796.134,648.151 797.868,646.229C799.603,644.308 801.665,643.347 804.056,643.347C806.728,643.347 808.908,644.249 810.595,646.054C812.283,647.858 813.126,649.956 813.126,652.347Z" style="fill:white;fill-rule:nonzero;"/>
            <path d="M884.845,706.558C884.845,712.089 883.908,717.62 882.033,723.151C880.158,728.683 877.439,733.534 873.876,737.706C870.267,742.018 865.919,745.475 860.833,748.077C855.747,750.679 849.853,751.979 843.15,751.979C835.368,751.979 829.052,749.472 824.201,744.456C819.349,739.44 816.923,732.69 816.923,724.206C816.923,717.972 817.954,712.159 820.017,706.768C822.079,701.378 824.845,696.643 828.314,692.565C831.829,688.487 836.177,685.194 841.357,682.686C846.536,680.179 852.15,678.925 858.197,678.925C866.54,678.925 873.068,681.468 877.779,686.554C882.49,691.64 884.845,698.308 884.845,706.558ZM870.501,703.886C870.501,697.229 869.318,692.237 866.951,688.909C864.583,685.581 861.173,683.917 856.72,683.917C852.829,683.917 849.161,685.112 845.716,687.503C842.271,689.893 839.306,693.784 836.822,699.175C834.9,703.253 833.493,707.788 832.603,712.78C831.712,717.772 831.267,722.378 831.267,726.597C831.267,733.3 832.427,738.374 834.747,741.819C837.068,745.265 840.572,746.987 845.259,746.987C849.431,746.987 853.134,745.675 856.368,743.05C859.603,740.425 862.228,737.097 864.243,733.065C866.259,729.128 867.806,724.616 868.884,719.53C869.962,714.444 870.501,709.229 870.501,703.886Z" style="fill:white;fill-rule:nonzero;"/>
            <path d="M970.345,741.714L969.29,746.214C965.072,747.901 961.79,749.132 959.447,749.905C957.103,750.679 954.736,751.065 952.345,751.065C948.595,751.065 945.783,750.093 943.908,748.147C942.033,746.202 941.095,743.8 941.095,740.94C941.095,739.909 941.189,738.772 941.376,737.53C941.564,736.288 941.868,734.823 942.29,733.136L949.181,706.909C949.697,704.893 950.107,703.065 950.411,701.425C950.716,699.784 950.868,698.472 950.868,697.487C950.868,694.347 950.118,691.862 948.618,690.034C947.118,688.206 944.892,687.292 941.939,687.292C939.079,687.292 935.868,688.229 932.306,690.104C928.743,691.979 925.392,694.698 922.251,698.261L910.368,749.87L897.29,749.87L907.767,704.308C908.001,703.183 908.341,701.554 908.786,699.421C909.232,697.288 909.454,695.565 909.454,694.253C909.454,691.628 909.009,689.87 908.118,688.979C907.228,688.089 905.447,687.643 902.775,687.643C901.743,687.643 900.431,687.819 898.837,688.171C897.243,688.522 896.001,688.815 895.111,689.05L896.165,684.55C899.822,682.909 903.056,681.69 905.868,680.893C908.681,680.097 911.095,679.698 913.111,679.698C916.814,679.698 919.462,680.706 921.056,682.722C922.65,684.737 923.493,687.526 923.587,691.089L924.009,691.089C929.165,686.964 933.618,683.905 937.368,681.913C941.118,679.921 945.384,678.925 950.165,678.925C954.665,678.925 958.181,680.225 960.712,682.827C963.243,685.429 964.509,688.839 964.509,693.058C964.509,693.901 964.38,695.401 964.122,697.558C963.865,699.714 963.454,701.847 962.892,703.956L956.986,726.526C956.564,728.026 956.154,729.749 955.755,731.694C955.357,733.64 955.158,735.151 955.158,736.229C955.158,738.901 955.743,740.718 956.915,741.679C958.087,742.64 960.009,743.12 962.681,743.12C963.572,743.12 964.849,742.968 966.513,742.663C968.177,742.358 969.454,742.042 970.345,741.714Z" style="fill:white;fill-rule:nonzero;"/>
            <path d="M226.65,895.839C218.447,895.839 211.966,893.448 207.208,888.667C202.451,883.886 200.072,877.089 200.072,868.276C200.072,862.417 200.974,856.804 202.779,851.436C204.583,846.069 207.103,841.3 210.337,837.128C213.572,832.956 217.661,829.546 222.607,826.897C227.552,824.249 233.048,822.925 239.095,822.925C245.798,822.925 250.896,824.343 254.388,827.179C257.88,830.015 259.626,833.589 259.626,837.901C259.626,841.136 258.865,843.972 257.341,846.409C255.818,848.847 253.533,850.065 250.486,850.065C247.954,850.065 246.056,849.433 244.79,848.167C243.525,846.901 242.892,845.495 242.892,843.948C242.892,842.448 243.408,840.397 244.439,837.796C245.47,835.194 246.29,833.097 246.9,831.503C246.384,830.237 245.236,829.311 243.454,828.725C241.673,828.14 239.822,827.847 237.9,827.847C231.525,827.847 226.029,831.561 221.411,838.991C216.794,846.421 214.486,855.526 214.486,866.308C214.486,872.964 215.974,878.249 218.951,882.163C221.927,886.077 225.947,888.034 231.009,888.034C235.556,888.034 239.599,886.815 243.138,884.378C246.677,881.94 250.064,878.495 253.298,874.042L257.306,876.995C254.072,882.104 249.677,886.522 244.122,890.249C238.568,893.975 232.743,895.839 226.65,895.839Z" style="fill:white;fill-rule:nonzero;"/>
            <path d="M333.314,850.558C333.314,856.089 332.376,861.62 330.501,867.151C328.626,872.683 325.908,877.534 322.345,881.706C318.736,886.018 314.388,889.475 309.302,892.077C304.216,894.679 298.322,895.979 291.618,895.979C283.837,895.979 277.521,893.472 272.669,888.456C267.818,883.44 265.392,876.69 265.392,868.206C265.392,861.972 266.423,856.159 268.486,850.768C270.548,845.378 273.314,840.643 276.783,836.565C280.298,832.487 284.646,829.194 289.826,826.686C295.005,824.179 300.618,822.925 306.665,822.925C315.009,822.925 321.536,825.468 326.247,830.554C330.958,835.64 333.314,842.308 333.314,850.558ZM318.97,847.886C318.97,841.229 317.786,836.237 315.419,832.909C313.052,829.581 309.642,827.917 305.189,827.917C301.298,827.917 297.63,829.112 294.185,831.503C290.74,833.893 287.775,837.784 285.29,843.175C283.368,847.253 281.962,851.788 281.072,856.78C280.181,861.772 279.736,866.378 279.736,870.597C279.736,877.3 280.896,882.374 283.216,885.819C285.536,889.265 289.04,890.987 293.728,890.987C297.9,890.987 301.603,889.675 304.837,887.05C308.072,884.425 310.697,881.097 312.712,877.065C314.728,873.128 316.275,868.616 317.353,863.53C318.431,858.444 318.97,853.229 318.97,847.886Z" style="fill:white;fill-rule:nonzero;"/>
            <path d="M460.579,885.925L459.525,890.425C455.212,892.159 451.767,893.366 449.189,894.046C446.611,894.725 444.408,895.065 442.579,895.065C438.829,895.065 436.017,894.093 434.142,892.147C432.267,890.202 431.329,887.8 431.329,884.94C431.329,883.909 431.423,882.772 431.611,881.53C431.798,880.288 432.103,878.823 432.525,877.136L439.415,850.909C439.931,848.893 440.341,847.065 440.646,845.425C440.951,843.784 441.103,842.472 441.103,841.487C441.103,838.347 440.423,835.862 439.064,834.034C437.704,832.206 435.548,831.292 432.595,831.292C429.454,831.292 426.372,832.03 423.349,833.507C420.326,834.983 416.915,837.737 413.118,841.768L400.884,893.87L387.806,893.87L398.845,846.901C399.079,845.87 399.302,844.78 399.513,843.632C399.724,842.483 399.829,841.628 399.829,841.065C399.829,838.018 399.068,835.628 397.544,833.893C396.021,832.159 393.783,831.292 390.829,831.292C388.158,831.292 385.204,831.96 381.97,833.296C378.736,834.632 374.986,837.62 370.72,842.261L358.837,893.87L345.759,893.87L356.236,848.308C356.611,846.667 356.974,844.909 357.326,843.034C357.677,841.159 357.853,839.565 357.853,838.253C357.853,835.534 357.408,833.741 356.517,832.874C355.626,832.007 353.892,831.573 351.314,831.573C350.283,831.573 348.958,831.761 347.341,832.136C345.724,832.511 344.47,832.815 343.579,833.05L344.634,828.55C348.29,826.909 351.525,825.69 354.337,824.893C357.15,824.097 359.564,823.698 361.579,823.698C365.329,823.698 367.99,824.718 369.56,826.757C371.13,828.796 371.962,831.573 372.056,835.089L372.478,835.089C378.009,830.729 382.556,827.612 386.118,825.737C389.681,823.862 393.923,822.925 398.845,822.925C403.017,822.925 406.404,824.132 409.005,826.546C411.607,828.96 413.072,831.995 413.4,835.651L413.681,835.651C418.697,831.479 423.161,828.315 427.076,826.159C430.99,824.003 435.548,822.925 440.751,822.925C445.251,822.925 448.708,824.225 451.122,826.827C453.536,829.429 454.743,832.839 454.743,837.058C454.743,837.901 454.615,839.401 454.357,841.558C454.099,843.714 453.689,845.847 453.126,847.956L447.22,870.526C446.798,872.026 446.4,873.749 446.025,875.694C445.65,877.64 445.462,879.151 445.462,880.229C445.462,882.901 446.025,884.718 447.15,885.679C448.275,886.64 450.173,887.12 452.845,887.12C453.736,887.12 455.025,887.003 456.712,886.768C458.4,886.534 459.689,886.253 460.579,885.925Z" style="fill:white;fill-rule:nonzero;"/>
            <path d="M542.986,849.784C542.986,856.065 541.884,862.018 539.681,867.643C537.478,873.268 534.548,878.143 530.892,882.268C526.814,886.815 522.396,890.19 517.638,892.393C512.88,894.597 507.993,895.698 502.978,895.698C498.947,895.698 495.642,895.206 493.064,894.222C490.486,893.237 488.189,892.018 486.173,890.565L482.095,908.987C481.814,910.159 481.591,911.261 481.427,912.292C481.263,913.323 481.181,914.143 481.181,914.753C481.181,916.018 481.638,917.026 482.552,917.776C483.466,918.526 484.509,919.065 485.681,919.393C486.853,919.768 488.165,920.05 489.618,920.237C491.072,920.425 492.384,920.565 493.556,920.659L492.572,925.089L453.829,925.089L454.814,920.659C456.314,920.565 457.72,920.448 459.033,920.308C460.345,920.167 461.587,919.933 462.759,919.604C464.212,919.183 465.372,918.397 466.24,917.249C467.107,916.1 467.728,914.683 468.103,912.995L482.798,848.308C483.173,846.526 483.525,844.733 483.853,842.929C484.181,841.124 484.345,839.565 484.345,838.253C484.345,835.628 483.935,833.87 483.115,832.979C482.294,832.089 480.525,831.643 477.806,831.643C476.775,831.643 475.462,831.843 473.868,832.241C472.275,832.64 471.033,832.956 470.142,833.19L471.197,828.69C474.759,827.097 477.97,825.866 480.829,824.999C483.689,824.132 486.126,823.698 488.142,823.698C491.423,823.698 493.908,824.53 495.595,826.194C497.283,827.858 498.337,830.167 498.759,833.12L499.322,833.12C502.509,830.167 505.919,827.729 509.552,825.808C513.185,823.886 516.806,822.925 520.415,822.925C527.54,822.925 533.083,825.35 537.044,830.202C541.005,835.054 542.986,841.581 542.986,849.784ZM521.048,878.823C523.439,874.979 525.279,870.608 526.568,865.71C527.857,860.811 528.501,855.62 528.501,850.136C528.501,847.651 528.279,845.155 527.833,842.647C527.388,840.14 526.673,838.065 525.689,836.425C524.658,834.597 523.251,833.179 521.47,832.171C519.689,831.163 517.345,830.659 514.439,830.659C512.283,830.659 509.904,831.315 507.302,832.628C504.701,833.94 501.525,836.401 497.775,840.011L488.775,879.878C489.103,882.55 490.544,885.046 493.099,887.366C495.654,889.686 498.736,890.847 502.345,890.847C506.048,890.847 509.517,889.768 512.751,887.612C515.986,885.456 518.751,882.526 521.048,878.823Z" style="fill:white;fill-rule:nonzero;"/>
            <path d="M613.017,837.55C613.017,842.518 611.458,846.784 608.341,850.347C605.224,853.909 600.689,856.745 594.736,858.854C590.376,860.448 585.97,861.737 581.517,862.722C577.064,863.706 572.142,864.526 566.751,865.183C566.751,872.589 568.122,878.249 570.865,882.163C573.607,886.077 577.626,888.034 582.923,888.034C587.611,888.034 591.747,886.862 595.333,884.518C598.919,882.175 602.447,878.683 605.915,874.042L609.923,876.995C606.173,882.714 601.486,887.284 595.861,890.706C590.236,894.128 584.4,895.839 578.353,895.839C570.056,895.839 563.716,893.518 559.333,888.878C554.951,884.237 552.759,877.651 552.759,869.12C552.759,863.214 553.685,857.577 555.536,852.21C557.388,846.843 560.095,841.933 563.658,837.479C567.126,833.12 571.38,829.604 576.419,826.933C581.458,824.261 587.025,822.925 593.118,822.925C599.868,822.925 604.872,824.296 608.13,827.038C611.388,829.78 613.017,833.284 613.017,837.55ZM600.079,835.792C600.079,833.964 599.822,832.522 599.306,831.468C598.79,830.413 598.134,829.628 597.337,829.112C596.493,828.55 595.603,828.198 594.665,828.058C593.728,827.917 592.767,827.847 591.783,827.847C586.158,827.847 580.966,830.94 576.208,837.128C571.451,843.315 568.439,851.026 567.173,860.261C570.454,859.792 574.158,859.124 578.283,858.257C582.408,857.39 585.829,856.253 588.548,854.847C592.439,852.831 595.333,850.241 597.232,847.077C599.13,843.913 600.079,840.151 600.079,835.792Z" style="fill:white;fill-rule:nonzero;"/>
            <path d="M637.134,895.347C632.681,895.347 629.423,894.444 627.361,892.64C625.298,890.835 624.267,888.245 624.267,884.87C624.267,883.792 624.337,882.772 624.478,881.811C624.618,880.85 624.806,879.761 625.04,878.542L635.939,831.573L623.423,831.573L624.9,825.175L637.697,825.175L642.618,804.573L655.275,804.573L650.493,825.175L670.111,825.175L668.634,831.573L649.158,831.573L640.158,870.315C639.736,872.097 639.384,873.819 639.103,875.483C638.822,877.147 638.681,878.565 638.681,879.737C638.681,882.315 639.326,884.202 640.615,885.397C641.904,886.593 644.236,887.19 647.611,887.19C648.829,887.19 650.54,887.038 652.743,886.733C654.947,886.429 656.658,886.042 657.876,885.573L656.681,890.706C653.4,891.972 650.306,893.061 647.4,893.975C644.493,894.89 641.072,895.347 637.134,895.347Z" style="fill:white;fill-rule:nonzero;"/>
            <path d="M704.564,886.206L703.509,890.706C699.197,892.44 695.751,893.647 693.173,894.327C690.595,895.007 688.392,895.347 686.564,895.347C682.814,895.347 680.001,894.374 678.126,892.429C676.251,890.483 675.314,888.081 675.314,885.222C675.314,884.143 675.408,883.018 675.595,881.847C675.783,880.675 676.087,879.198 676.509,877.417L683.962,847.534C684.337,845.893 684.701,844.136 685.052,842.261C685.404,840.386 685.579,838.792 685.579,837.479C685.579,834.854 685.146,833.108 684.279,832.241C683.411,831.374 681.642,830.94 678.97,830.94C677.939,830.94 676.568,831.104 674.857,831.433C673.146,831.761 671.845,832.042 670.954,832.276L672.009,827.776C675.665,826.136 678.947,824.917 681.853,824.12C684.759,823.323 687.056,822.925 688.743,822.925C692.587,822.925 695.376,823.839 697.111,825.667C698.845,827.495 699.712,829.956 699.712,833.05C699.712,833.893 699.618,835.042 699.431,836.495C699.243,837.948 698.962,839.401 698.587,840.854L691.064,870.737C690.595,872.565 690.185,874.358 689.833,876.116C689.482,877.874 689.306,879.315 689.306,880.44C689.306,883.112 689.904,884.94 691.099,885.925C692.294,886.909 694.228,887.401 696.9,887.401C697.79,887.401 699.068,887.284 700.732,887.05C702.396,886.815 703.673,886.534 704.564,886.206ZM709.556,796.347C709.556,799.018 708.689,801.35 706.954,803.343C705.22,805.335 703.064,806.331 700.486,806.331C698.095,806.331 696.033,805.382 694.298,803.483C692.564,801.585 691.697,799.417 691.697,796.979C691.697,794.401 692.564,792.151 694.298,790.229C696.033,788.308 698.095,787.347 700.486,787.347C703.158,787.347 705.337,788.249 707.025,790.054C708.712,791.858 709.556,793.956 709.556,796.347Z" style="fill:white;fill-rule:nonzero;"/>
            <path d="M729.947,895.347C725.493,895.347 722.236,894.444 720.173,892.64C718.111,890.835 717.079,888.245 717.079,884.87C717.079,883.792 717.15,882.772 717.29,881.811C717.431,880.85 717.618,879.761 717.853,878.542L728.751,831.573L716.236,831.573L717.712,825.175L730.509,825.175L735.431,804.573L748.087,804.573L743.306,825.175L762.923,825.175L761.447,831.573L741.97,831.573L732.97,870.315C732.548,872.097 732.197,873.819 731.915,875.483C731.634,877.147 731.493,878.565 731.493,879.737C731.493,882.315 732.138,884.202 733.427,885.397C734.716,886.593 737.048,887.19 740.423,887.19C741.642,887.19 743.353,887.038 745.556,886.733C747.759,886.429 749.47,886.042 750.689,885.573L749.493,890.706C746.212,891.972 743.118,893.061 740.212,893.975C737.306,894.89 733.884,895.347 729.947,895.347Z" style="fill:white;fill-rule:nonzero;"/>
            <path d="M797.376,886.206L796.322,890.706C792.009,892.44 788.564,893.647 785.986,894.327C783.408,895.007 781.204,895.347 779.376,895.347C775.626,895.347 772.814,894.374 770.939,892.429C769.064,890.483 768.126,888.081 768.126,885.222C768.126,884.143 768.22,883.018 768.408,881.847C768.595,880.675 768.9,879.198 769.322,877.417L776.775,847.534C777.15,845.893 777.513,844.136 777.865,842.261C778.216,840.386 778.392,838.792 778.392,837.479C778.392,834.854 777.958,833.108 777.091,832.241C776.224,831.374 774.454,830.94 771.783,830.94C770.751,830.94 769.38,831.104 767.669,831.433C765.958,831.761 764.658,832.042 763.767,832.276L764.822,827.776C768.478,826.136 771.759,824.917 774.665,824.12C777.572,823.323 779.868,822.925 781.556,822.925C785.4,822.925 788.189,823.839 789.923,825.667C791.658,827.495 792.525,829.956 792.525,833.05C792.525,833.893 792.431,835.042 792.243,836.495C792.056,837.948 791.775,839.401 791.4,840.854L783.876,870.737C783.408,872.565 782.997,874.358 782.646,876.116C782.294,877.874 782.118,879.315 782.118,880.44C782.118,883.112 782.716,884.94 783.911,885.925C785.107,886.909 787.04,887.401 789.712,887.401C790.603,887.401 791.88,887.284 793.544,887.05C795.208,886.815 796.486,886.534 797.376,886.206ZM802.368,796.347C802.368,799.018 801.501,801.35 799.767,803.343C798.033,805.335 795.876,806.331 793.298,806.331C790.908,806.331 788.845,805.382 787.111,803.483C785.376,801.585 784.509,799.417 784.509,796.979C784.509,794.401 785.376,792.151 787.111,790.229C788.845,788.308 790.908,787.347 793.298,787.347C795.97,787.347 798.15,788.249 799.837,790.054C801.525,791.858 802.368,793.956 802.368,796.347Z" style="fill:white;fill-rule:nonzero;"/>
            <path d="M874.087,850.558C874.087,856.089 873.15,861.62 871.275,867.151C869.4,872.683 866.681,877.534 863.118,881.706C859.509,886.018 855.161,889.475 850.076,892.077C844.99,894.679 839.095,895.979 832.392,895.979C824.611,895.979 818.294,893.472 813.443,888.456C808.591,883.44 806.165,876.69 806.165,868.206C806.165,861.972 807.197,856.159 809.259,850.768C811.322,845.378 814.087,840.643 817.556,836.565C821.072,832.487 825.419,829.194 830.599,826.686C835.779,824.179 841.392,822.925 847.439,822.925C855.783,822.925 862.31,825.468 867.021,830.554C871.732,835.64 874.087,842.308 874.087,850.558ZM859.743,847.886C859.743,841.229 858.56,836.237 856.193,832.909C853.826,829.581 850.415,827.917 845.962,827.917C842.072,827.917 838.404,829.112 834.958,831.503C831.513,833.893 828.548,837.784 826.064,843.175C824.142,847.253 822.736,851.788 821.845,856.78C820.954,861.772 820.509,866.378 820.509,870.597C820.509,877.3 821.669,882.374 823.99,885.819C826.31,889.265 829.814,890.987 834.501,890.987C838.673,890.987 842.376,889.675 845.611,887.05C848.845,884.425 851.47,881.097 853.486,877.065C855.501,873.128 857.048,868.616 858.126,863.53C859.204,858.444 859.743,853.229 859.743,847.886Z" style="fill:white;fill-rule:nonzero;"/>
            <path d="M959.587,885.714L958.533,890.214C954.314,891.901 951.033,893.132 948.689,893.905C946.345,894.679 943.978,895.065 941.587,895.065C937.837,895.065 935.025,894.093 933.15,892.147C931.275,890.202 930.337,887.8 930.337,884.94C930.337,883.909 930.431,882.772 930.618,881.53C930.806,880.288 931.111,878.823 931.533,877.136L938.423,850.909C938.939,848.893 939.349,847.065 939.654,845.425C939.958,843.784 940.111,842.472 940.111,841.487C940.111,838.347 939.361,835.862 937.861,834.034C936.361,832.206 934.134,831.292 931.181,831.292C928.322,831.292 925.111,832.229 921.548,834.104C917.986,835.979 914.634,838.698 911.493,842.261L899.611,893.87L886.533,893.87L897.009,848.308C897.243,847.183 897.583,845.554 898.029,843.421C898.474,841.288 898.697,839.565 898.697,838.253C898.697,835.628 898.251,833.87 897.361,832.979C896.47,832.089 894.689,831.643 892.017,831.643C890.986,831.643 889.673,831.819 888.079,832.171C886.486,832.522 885.243,832.815 884.353,833.05L885.408,828.55C889.064,826.909 892.298,825.69 895.111,824.893C897.923,824.097 900.337,823.698 902.353,823.698C906.056,823.698 908.704,824.706 910.298,826.722C911.892,828.737 912.736,831.526 912.829,835.089L913.251,835.089C918.408,830.964 922.861,827.905 926.611,825.913C930.361,823.921 934.626,822.925 939.408,822.925C943.908,822.925 947.423,824.225 949.954,826.827C952.486,829.429 953.751,832.839 953.751,837.058C953.751,837.901 953.622,839.401 953.365,841.558C953.107,843.714 952.697,845.847 952.134,847.956L946.228,870.526C945.806,872.026 945.396,873.749 944.997,875.694C944.599,877.64 944.4,879.151 944.4,880.229C944.4,882.901 944.986,884.718 946.158,885.679C947.329,886.64 949.251,887.12 951.923,887.12C952.814,887.12 954.091,886.968 955.755,886.663C957.419,886.358 958.697,886.042 959.587,885.714Z" style="fill:white;fill-rule:nonzero;"/>
        </g>
        <g transform="matrix(0.928148,0,0,0.928148,-88.1335,14.0549)">
            <path d="M213.524,255.573L201.149,313.651C198.946,324.058 194.305,332.565 187.227,339.175C180.149,345.784 172.86,349.089 165.36,349.089C161.235,349.089 158.2,348.304 156.254,346.733C154.309,345.163 153.336,343.183 153.336,340.792C153.336,338.776 153.946,336.995 155.164,335.448C156.383,333.901 158.141,333.128 160.438,333.128C161.891,333.128 163.168,333.456 164.27,334.112C165.372,334.768 166.344,335.589 167.188,336.573C167.844,337.37 168.582,338.448 169.403,339.808C170.223,341.167 170.938,342.339 171.547,343.323C175.157,343.042 178.239,340.604 180.793,336.011C183.348,331.417 185.563,324.854 187.438,316.323L200.375,255.573L186.664,255.573L188.141,249.175L201.711,249.175L202.696,244.393C203.821,238.956 205.602,234.058 208.039,229.698C210.477,225.339 213.243,221.636 216.336,218.589C219.383,215.589 222.84,213.233 226.707,211.522C230.575,209.811 234.289,208.956 237.852,208.956C241.977,208.956 245.012,209.741 246.957,211.311C248.903,212.882 249.875,214.862 249.875,217.253C249.875,219.268 249.301,221.05 248.153,222.597C247.004,224.143 245.211,224.917 242.774,224.917C241.321,224.917 240.055,224.6 238.977,223.968C237.899,223.335 236.938,222.503 236.094,221.472C235.157,220.3 234.407,219.198 233.844,218.167C233.282,217.136 232.579,215.987 231.735,214.722C228.5,214.862 225.641,216.995 223.157,221.12C220.672,225.245 218.422,232.112 216.407,241.722L214.86,249.175L232.508,249.175L231.032,255.573L213.524,255.573Z" style="fill:white;fill-rule:nonzero;"/>
            <path d="M298.672,274.558C298.672,280.089 297.735,285.62 295.86,291.151C293.985,296.683 291.266,301.534 287.704,305.706C284.094,310.018 279.747,313.475 274.661,316.077C269.575,318.679 263.68,319.979 256.977,319.979C249.196,319.979 242.879,317.472 238.028,312.456C233.176,307.44 230.75,300.69 230.75,292.206C230.75,285.972 231.782,280.159 233.844,274.768C235.907,269.378 238.672,264.643 242.141,260.565C245.657,256.487 250.004,253.194 255.184,250.686C260.364,248.179 265.977,246.925 272.024,246.925C280.368,246.925 286.895,249.468 291.606,254.554C296.317,259.64 298.672,266.308 298.672,274.558ZM284.329,271.886C284.329,265.229 283.145,260.237 280.778,256.909C278.411,253.581 275,251.917 270.547,251.917C266.657,251.917 262.989,253.112 259.543,255.503C256.098,257.893 253.133,261.784 250.649,267.175C248.727,271.253 247.321,275.788 246.43,280.78C245.539,285.772 245.094,290.378 245.094,294.597C245.094,301.3 246.254,306.374 248.575,309.819C250.895,313.265 254.399,314.987 259.086,314.987C263.258,314.987 266.961,313.675 270.196,311.05C273.43,308.425 276.055,305.097 278.071,301.065C280.086,297.128 281.633,292.616 282.711,287.53C283.789,282.444 284.329,277.229 284.329,271.886Z" style="fill:white;fill-rule:nonzero;"/>
            <path d="M345.571,210.081L325.954,294.737C325.532,296.518 325.133,298.3 324.758,300.081C324.383,301.862 324.196,303.315 324.196,304.44C324.196,307.112 324.793,308.94 325.989,309.925C327.184,310.909 329.118,311.401 331.789,311.401C332.727,311.401 334.122,311.284 335.973,311.05C337.825,310.815 339.219,310.534 340.157,310.206L339.102,314.706C334.883,316.393 331.637,317.589 329.364,318.292C327.09,318.995 324.524,319.347 321.664,319.347C317.914,319.347 315.067,318.374 313.122,316.429C311.176,314.483 310.204,312.081 310.204,309.222C310.204,308.143 310.309,307.018 310.52,305.847C310.731,304.675 311.024,303.198 311.399,301.417L328.485,227.378C328.813,225.925 329.036,224.917 329.153,224.354C329.27,223.792 329.329,223.089 329.329,222.245C329.329,220.558 329.047,219.257 328.485,218.343C327.922,217.429 327.125,216.737 326.094,216.268C325.11,215.847 323.868,215.565 322.368,215.425C320.868,215.284 319.344,215.12 317.797,214.933L318.782,210.643L344.868,209.026L345.571,210.081Z" style="fill:white;fill-rule:nonzero;"/>
            <path d="M419.75,254.94C419.75,257.003 418.942,258.913 417.325,260.671C415.707,262.429 413.704,263.308 411.313,263.308C409.766,263.308 408.243,263.097 406.743,262.675C405.243,262.253 403.602,261.62 401.821,260.776C399.243,262.229 396.582,264.022 393.84,266.155C391.098,268.288 388.11,270.878 384.875,273.925C387.547,280.862 389.809,286.546 391.661,290.975C393.512,295.405 395.094,299.026 396.407,301.839C398.094,305.354 399.957,307.85 401.997,309.327C404.036,310.804 406.274,311.542 408.711,311.542C409.836,311.542 411.383,311.366 413.352,311.015C415.321,310.663 416.844,310.3 417.922,309.925L416.868,314.565C412.508,316.347 409.086,317.542 406.602,318.151C404.118,318.761 401.61,319.065 399.079,319.065C396.079,319.065 393.512,318.233 391.379,316.569C389.247,314.905 387.196,311.893 385.227,307.534C383.305,303.362 381.594,299.249 380.094,295.194C378.594,291.14 377.118,287.308 375.664,283.698L367.438,290.729L361.391,317.87L348.313,317.87L369.196,227.378C369.524,225.925 369.747,224.917 369.864,224.354C369.981,223.792 370.039,223.089 370.039,222.245C370.039,220.558 369.758,219.257 369.196,218.343C368.633,217.429 367.836,216.737 366.805,216.268C365.821,215.847 364.579,215.565 363.079,215.425C361.579,215.284 360.055,215.12 358.508,214.933L359.493,210.643L385.579,209.026L386.282,210.081L369.125,283.276L369.407,283.276C374.704,277.558 379.52,272.6 383.856,268.405C388.192,264.21 392.727,259.933 397.461,255.573C400.836,252.479 403.508,250.358 405.477,249.21C407.446,248.061 409.555,247.487 411.805,247.487C414.196,247.487 416.118,248.155 417.571,249.491C419.024,250.827 419.75,252.643 419.75,254.94Z" style="fill:white;fill-rule:nonzero;"/>
            <path d="M503.918,317.87L477.178,317.87C472.557,310.792 468.715,305.155 465.651,300.961C462.587,296.766 458.778,291.917 454.223,286.411L451.519,286.411L451.519,307.597C451.519,308.776 451.74,309.776 452.183,310.595C452.625,311.414 453.469,312.103 454.714,312.66C455.337,312.922 456.312,313.192 457.639,313.471C458.966,313.749 460.105,313.938 461.055,314.036L461.055,317.87L423.845,317.87L423.845,314.036C424.796,313.938 426.049,313.798 427.605,313.618C429.162,313.438 430.268,313.217 430.923,312.955C432.169,312.43 433.004,311.767 433.43,310.964C433.856,310.161 434.069,309.137 434.069,307.892L434.069,258.688C434.069,257.508 433.889,256.525 433.529,255.739C433.168,254.952 432.3,254.264 430.923,253.674C429.875,253.248 428.638,252.888 427.212,252.593C425.787,252.298 424.664,252.085 423.845,251.954L423.845,248.12L462.972,248.12C471.722,248.12 478.366,249.488 482.904,252.224C487.443,254.961 489.712,259.098 489.712,264.636C489.712,269.519 488.311,273.443 485.509,276.408C482.708,279.374 478.439,281.692 472.705,283.364C474.933,286.247 477.53,289.59 480.496,293.391C483.461,297.192 486.55,301.076 489.761,305.041C490.777,306.319 492.162,307.883 493.915,309.735C495.668,311.586 497.216,312.725 498.56,313.151C499.313,313.381 500.272,313.577 501.435,313.741C502.599,313.905 503.426,314.003 503.918,314.036L503.918,317.87ZM470.443,266.012C470.443,261.359 469.141,257.959 466.536,255.813C463.931,253.666 460.219,252.593 455.402,252.593L451.519,252.593L451.519,281.791L455.255,281.791C460.072,281.791 463.808,280.529 466.462,278.006C469.116,275.483 470.443,271.485 470.443,266.012Z" style="fill:white;fill-rule:nonzero;"/>
            <path d="M584.236,251.954C583.318,252.052 582.007,252.233 580.303,252.495C578.599,252.757 577.059,253.396 575.683,254.412C574.47,255.297 573.61,256.812 573.102,258.959C572.594,261.105 572.34,264.259 572.34,268.421L572.34,318.263L563.591,318.263L520.139,264.341L520.139,297.078C520.139,301.141 520.409,304.23 520.95,306.343C521.49,308.457 522.367,310.005 523.579,310.988C524.464,311.709 525.873,312.348 527.807,312.905C529.74,313.463 531.28,313.839 532.427,314.036L532.427,317.87L502.443,317.87L502.443,314.036C503.721,313.938 505.187,313.7 506.842,313.323C508.497,312.946 509.882,312.365 510.996,311.578C512.274,310.628 513.15,309.194 513.626,307.277C514.101,305.36 514.338,302.141 514.338,297.618L514.338,264.587C514.338,262.948 514.084,261.4 513.576,259.942C513.068,258.483 512.274,257.23 511.192,256.181C510.046,255.067 508.727,254.191 507.236,253.552C505.745,252.913 504.049,252.413 502.148,252.052L502.148,248.12L528.396,248.12L566.54,295.308L566.54,268.912C566.54,264.718 566.262,261.596 565.705,259.548C565.148,257.5 564.263,255.985 563.05,255.002C562.1,254.248 560.691,253.601 558.823,253.06C556.955,252.519 555.448,252.151 554.301,251.954L554.301,248.12L584.236,248.12L584.236,251.954Z" style="fill:white;fill-rule:nonzero;"/>
            <path d="M668.732,251.954C667.815,252.052 666.504,252.233 664.8,252.495C663.096,252.757 661.556,253.396 660.179,254.412C658.967,255.297 658.107,256.812 657.599,258.959C657.091,261.105 656.837,264.259 656.837,268.421L656.837,318.263L648.087,318.263L604.635,264.341L604.635,297.078C604.635,301.141 604.905,304.23 605.446,306.343C605.987,308.457 606.863,310.005 608.076,310.988C608.96,311.709 610.37,312.348 612.303,312.905C614.236,313.463 615.776,313.839 616.923,314.036L616.923,317.87L586.939,317.87L586.939,314.036C588.217,313.938 589.684,313.7 591.339,313.323C592.993,312.946 594.378,312.365 595.492,311.578C596.77,310.628 597.647,309.194 598.122,307.277C598.597,305.36 598.835,302.141 598.835,297.618L598.835,264.587C598.835,262.948 598.581,261.4 598.073,259.942C597.565,258.483 596.77,257.23 595.689,256.181C594.542,255.067 593.223,254.191 591.732,253.552C590.241,252.913 588.545,252.413 586.644,252.052L586.644,248.12L612.893,248.12L651.037,295.308L651.037,268.912C651.037,264.718 650.758,261.596 650.201,259.548C649.644,257.5 648.759,255.985 647.547,255.002C646.596,254.248 645.187,253.601 643.319,253.06C641.451,252.519 639.944,252.151 638.797,251.954L638.797,248.12L668.732,248.12L668.732,251.954Z" style="fill:white;fill-rule:nonzero;"/>
        </g>
    </g>
</svg>
